<?xml version="1.0" encoding="utf-8"?>
<!-- Generator: Adobe Illustrator 16.0.0, SVG Export Plug-In . SVG Version: 6.00 Build 0)  -->
<!DOCTYPE svg PUBLIC "-//W3C//DTD SVG 1.1//EN" "http://www.w3.org/Graphics/SVG/1.1/DTD/svg11.dtd">
<svg version="1.1" id="Layer_1" xmlns="http://www.w3.org/2000/svg" xmlns:xlink="http://www.w3.org/1999/xlink" x="0px" y="0px"
	 width="348.985px" height="80.003px" viewBox="0 0 348.985 80.003" enable-background="new 0 0 348.985 80.003"
	 xml:space="preserve">
<path fill="#676767" d="M120.295,53.363c0-0.52-0.12-0.969-0.37-1.35c-0.25-0.39-0.61-0.68-1.09-0.89c-0.48-0.2-1.05-0.31-1.72-0.31
	h-4.12l-1.73,8.909h1.87l0.65-3.38h2.18l1.46,3.38h2.06l-1.73-3.69c0.78-0.109,1.4-0.42,1.86-0.899
	C120.065,54.654,120.295,54.064,120.295,53.363 M117.935,54.523c-0.31,0.25-0.77,0.371-1.39,0.371h-2.48l0.51-2.631h2.3
	c0.49,0,0.86,0.1,1.13,0.311c0.27,0.209,0.4,0.51,0.4,0.899C118.405,53.923,118.255,54.273,117.935,54.523"/>
<polygon fill="#676767" points="129.065,52.253 129.345,50.814 122.335,50.814 120.615,59.724 127.865,59.724 128.155,58.284 
	122.755,58.284 123.215,55.933 127.965,55.933 128.245,54.494 123.485,54.494 123.925,52.253 "/>
<polygon fill="#676767" points="131.385,58.283 132.835,50.814 130.975,50.814 129.245,59.723 135.885,59.723 136.165,58.283 "/>
<polygon fill="#676767" points="138.875,50.814 137.155,59.724 139.015,59.724 140.745,50.814 "/>
<path fill="#676767" d="M147.435,50.814h-2.2l-4.98,8.909h1.86l1.23-2.28h3.4l0.34,2.28h1.85L147.435,50.814z M144.105,56.043
	l1.34-2.521c0.32-0.619,0.53-1.069,0.61-1.34c0,0.1,0.04,0.43,0.12,1l0.42,2.86H144.105z"/>
<path fill="#676767" d="M156.695,55.053c0.67-0.13,1.17-0.39,1.52-0.76s0.52-0.84,0.52-1.42c0-0.67-0.27-1.19-0.81-1.53
	c-0.55-0.35-1.35-0.529-2.4-0.529h-3.69l-1.74,8.909h4.46c1.32,0,2.31-0.229,2.97-0.7c0.66-0.459,0.99-1.14,0.99-2.029
	c0-0.5-0.16-0.92-0.48-1.271C157.715,55.374,157.265,55.154,156.695,55.053 M153.415,52.204h1.9c0.57,0,0.97,0.069,1.21,0.22
	c0.24,0.16,0.36,0.4,0.36,0.74c0,0.439-0.15,0.76-0.46,0.949c-0.31,0.201-0.84,0.291-1.57,0.291h-1.86L153.415,52.204z
	 M156.135,58.023c-0.34,0.211-0.95,0.32-1.83,0.32h-2.08l0.5-2.561h2.09c0.65,0,1.11,0.101,1.4,0.301c0.29,0.21,0.43,0.5,0.43,0.88
	C156.646,57.454,156.475,57.803,156.135,58.023"/>
<polygon fill="#676767" points="161.585,58.283 163.035,50.814 161.175,50.814 159.445,59.723 166.085,59.723 166.365,58.283 "/>
<polygon fill="#676767" points="175.806,52.253 176.085,50.814 169.075,50.814 167.355,59.724 174.605,59.724 174.896,58.284 
	169.495,58.284 169.955,55.933 174.705,55.933 174.985,54.494 170.225,54.494 170.665,52.253 "/>
<path fill="#676767" d="M184.745,56.343h2.16l-0.29,1.439c-0.31,0.181-0.67,0.33-1.1,0.44c-0.431,0.11-0.88,0.16-1.33,0.16
	c-0.73,0-1.3-0.21-1.7-0.64c-0.41-0.42-0.61-1.01-0.61-1.76c0-0.761,0.141-1.431,0.41-2.011c0.271-0.579,0.65-1.03,1.16-1.35
	c0.51-0.32,1.09-0.47,1.76-0.47c0.54,0,0.98,0.129,1.33,0.39c0.351,0.26,0.59,0.63,0.71,1.101l1.78-0.49
	c-0.22-0.78-0.66-1.381-1.3-1.82c-0.65-0.43-1.45-0.65-2.41-0.65c-1.061,0-1.99,0.221-2.8,0.66c-0.801,0.439-1.431,1.07-1.87,1.891
	c-0.44,0.819-0.66,1.75-0.66,2.799c0,1.201,0.36,2.141,1.08,2.811c0.71,0.67,1.7,1,2.97,1c0.811,0,1.54-0.09,2.2-0.279
	c0.66-0.181,1.31-0.5,1.97-0.951l0.66-3.59h-3.88L184.745,56.343z"/>
<path fill="#676767" d="M197.215,51.523c-0.579-0.47-1.38-0.709-2.42-0.709h-3.42l-1.72,8.909h1.86l0.609-3.14h2.391
	c1.08,0,1.949-0.28,2.59-0.84c0.649-0.561,0.97-1.311,0.97-2.26C198.075,52.654,197.785,51.994,197.215,51.523 M195.695,54.783
	c-0.32,0.25-0.81,0.371-1.47,0.371h-1.82l0.56-2.891h1.65c0.51,0,0.9,0.11,1.17,0.34c0.271,0.221,0.4,0.551,0.4,0.98
	C196.186,54.144,196.025,54.543,195.695,54.783"/>
<path fill="#676767" d="M205.396,55.454c-0.19-0.21-0.45-0.39-0.771-0.55c-0.319-0.16-0.819-0.34-1.489-0.521
	c-0.62-0.17-1.04-0.31-1.25-0.409c-0.211-0.101-0.37-0.221-0.48-0.361c-0.11-0.139-0.16-0.31-0.16-0.51c0-0.34,0.15-0.609,0.45-0.8
	c0.3-0.2,0.71-0.3,1.229-0.3c0.5,0,0.9,0.109,1.211,0.34c0.31,0.23,0.51,0.53,0.6,0.91l1.82-0.43c-0.131-0.7-0.511-1.23-1.11-1.59
	c-0.61-0.371-1.42-0.551-2.42-0.551c-1.09,0-1.97,0.23-2.63,0.68c-0.66,0.461-0.99,1.061-0.99,1.801c0,0.47,0.1,0.87,0.29,1.189
	c0.2,0.32,0.479,0.59,0.86,0.82c0.369,0.221,0.939,0.439,1.72,0.641c0.75,0.189,1.25,0.39,1.5,0.58
	c0.26,0.199,0.38,0.459,0.38,0.799c0,0.841-0.72,1.261-2.18,1.261c-0.59,0-1.04-0.11-1.34-0.32c-0.311-0.22-0.5-0.56-0.591-1.03
	l-1.83,0.311c0.12,0.83,0.471,1.439,1.061,1.84s1.45,0.59,2.58,0.59c1.35,0,2.38-0.23,3.08-0.71s1.05-1.17,1.05-2.08
	c0-0.35-0.05-0.649-0.15-0.909C205.735,55.883,205.585,55.654,205.396,55.454"/>
<polygon fill="#676767" points="211.485,50.814 211.205,52.253 214.085,52.253 212.625,59.724 214.495,59.724 215.945,52.253 
	218.825,52.253 219.105,50.814 "/>
<path fill="#676767" d="M227.455,53.363c0-0.52-0.12-0.969-0.37-1.35c-0.25-0.39-0.62-0.68-1.09-0.89
	c-0.479-0.2-1.06-0.31-1.729-0.31h-4.11l-1.73,8.909h1.86l0.65-3.38h2.189l1.45,3.38h2.061l-1.73-3.69
	c0.79-0.109,1.41-0.42,1.86-0.899C227.226,54.654,227.455,54.064,227.455,53.363 M225.096,54.523
	c-0.311,0.25-0.78,0.371-1.391,0.371h-2.479l0.51-2.631h2.3c0.49,0,0.86,0.1,1.13,0.311c0.271,0.209,0.4,0.51,0.4,0.899
	C225.565,53.923,225.405,54.273,225.096,54.523"/>
<path fill="#676767" d="M234.455,50.814h-2.2l-4.979,8.909h1.86l1.229-2.28h3.4l0.35,2.28h1.84L234.455,50.814z M231.125,56.043
	l1.34-2.521c0.32-0.619,0.53-1.069,0.61-1.34c0,0.1,0.04,0.43,0.12,1l0.42,2.86H231.125z"/>
<path fill="#676767" d="M241.516,58.383c-0.67,0-1.19-0.19-1.551-0.59c-0.359-0.399-0.54-0.96-0.54-1.69c0-1.22,0.29-2.18,0.87-2.89
	s1.38-1.06,2.4-1.06c0.5,0,0.92,0.13,1.26,0.39c0.351,0.26,0.58,0.62,0.7,1.069l1.74-0.449c-0.221-0.82-0.641-1.439-1.26-1.86
	c-0.62-0.409-1.421-0.62-2.381-0.62c-1.02,0-1.92,0.221-2.71,0.67c-0.8,0.45-1.42,1.09-1.859,1.931c-0.44,0.829-0.66,1.78-0.66,2.84
	c0,0.75,0.149,1.41,0.45,1.97c0.3,0.561,0.739,1,1.33,1.301c0.58,0.299,1.279,0.449,2.08,0.449c1.92,0,3.319-0.779,4.199-2.35
	l-1.43-0.73C243.516,57.843,242.636,58.383,241.516,58.383"/>
<polygon fill="#676767" points="256.375,50.814 254.035,50.814 249.235,54.853 250.056,50.814 248.195,50.814 246.465,59.724 
	248.315,59.724 248.955,56.454 250.285,55.673 252.525,59.724 254.585,59.724 251.646,54.713 "/>
<polygon fill="#676767" points="257.545,50.814 255.815,59.724 257.675,59.724 259.405,50.814 "/>
<path fill="#676767" d="M267.096,50.814l-1.101,5.6c-0.07,0.38-0.13,0.75-0.18,1.1l-0.08,0.51l-2.38-7.209h-2.21l-1.73,8.91h1.65
	l1.1-5.641c0.07-0.32,0.15-0.83,0.24-1.51l2.37,7.15h2.25l1.729-8.91H267.096z"/>
<path fill="#676767" d="M273.915,56.343h2.16l-0.29,1.439c-0.3,0.181-0.67,0.33-1.1,0.44c-0.431,0.11-0.87,0.16-1.32,0.16
	c-0.74,0-1.31-0.21-1.71-0.64c-0.4-0.42-0.6-1.01-0.6-1.76c0-0.761,0.13-1.431,0.399-2.011c0.271-0.579,0.66-1.03,1.17-1.35
	c0.5-0.32,1.09-0.47,1.761-0.47c0.529,0,0.979,0.129,1.329,0.39c0.351,0.26,0.58,0.63,0.71,1.101l1.78-0.49
	c-0.229-0.78-0.66-1.381-1.31-1.82c-0.641-0.43-1.45-0.65-2.41-0.65c-1.05,0-1.98,0.221-2.79,0.66s-1.43,1.07-1.87,1.891
	c-0.439,0.819-0.66,1.75-0.66,2.799c0,1.201,0.36,2.141,1.07,2.811c0.72,0.67,1.71,1,2.97,1c0.811,0,1.55-0.09,2.2-0.279
	c0.66-0.181,1.32-0.5,1.98-0.951l0.659-3.59h-3.88L273.915,56.343z"/>
<path fill="#676767" d="M289.535,55.454c-0.2-0.21-0.45-0.39-0.77-0.55c-0.32-0.16-0.82-0.34-1.49-0.521
	c-0.62-0.17-1.04-0.31-1.25-0.409c-0.21-0.101-0.37-0.221-0.48-0.361c-0.109-0.139-0.159-0.31-0.159-0.51
	c0-0.34,0.149-0.609,0.449-0.8c0.301-0.2,0.71-0.3,1.23-0.3c0.5,0,0.899,0.109,1.21,0.34c0.31,0.23,0.51,0.53,0.6,0.91l1.82-0.43
	c-0.14-0.7-0.51-1.23-1.12-1.59c-0.6-0.371-1.41-0.551-2.41-0.551c-1.09,0-1.97,0.23-2.63,0.68c-0.66,0.461-0.99,1.061-0.99,1.801
	c0,0.47,0.101,0.87,0.29,1.189c0.2,0.32,0.48,0.59,0.86,0.82c0.37,0.221,0.94,0.439,1.72,0.641c0.75,0.189,1.25,0.39,1.5,0.58
	c0.25,0.199,0.38,0.459,0.38,0.799c0,0.841-0.729,1.261-2.18,1.261c-0.59,0-1.04-0.11-1.34-0.32c-0.311-0.22-0.51-0.56-0.59-1.03
	l-1.83,0.311c0.12,0.83,0.47,1.439,1.06,1.84s1.45,0.59,2.57,0.59c1.36,0,2.39-0.23,3.09-0.71s1.05-1.17,1.05-2.08
	c0-0.35-0.05-0.649-0.149-0.909C289.865,55.883,289.726,55.654,289.535,55.454"/>
<path fill="#676767" d="M299.615,51.664c-0.71-0.65-1.68-0.98-2.92-0.98c-1.021,0-1.93,0.23-2.72,0.68
	c-0.79,0.451-1.4,1.111-1.851,1.971c-0.439,0.85-0.66,1.779-0.66,2.77c0,0.76,0.15,1.42,0.471,1.99c0.31,0.561,0.77,1,1.37,1.301
	c0.6,0.299,1.31,0.449,2.119,0.449c1.021,0,1.931-0.22,2.73-0.68s1.42-1.11,1.86-1.971c0.449-0.859,0.67-1.81,0.67-2.85
	C300.686,53.213,300.325,52.324,299.615,51.664 M298.365,56.503c-0.26,0.62-0.63,1.09-1.11,1.4c-0.479,0.32-1.06,0.479-1.739,0.479
	c-0.681,0-1.21-0.2-1.591-0.59c-0.38-0.39-0.569-0.97-0.569-1.74c0-0.69,0.13-1.36,0.399-1.989c0.261-0.641,0.631-1.121,1.11-1.431
	c0.48-0.319,1.06-0.479,1.74-0.479c0.7,0,1.24,0.209,1.6,0.619c0.37,0.4,0.561,0.98,0.561,1.721
	C298.766,55.204,298.636,55.874,298.365,56.503"/>
<polygon fill="#676767" points="303.266,58.283 304.715,50.814 302.855,50.814 301.125,59.723 307.766,59.723 308.045,58.283 "/>
<path fill="#676767" d="M316.556,50.814l-1.061,5.489c-0.149,0.75-0.399,1.29-0.76,1.601c-0.36,0.32-0.89,0.479-1.58,0.479
	c-0.54,0-0.96-0.11-1.27-0.35c-0.311-0.24-0.461-0.58-0.461-1.011c0-0.359,0.04-0.72,0.11-1.09l0.97-5.119h-1.869l-0.931,4.899
	c-0.04,0.149-0.069,0.36-0.1,0.62s-0.05,0.48-0.05,0.66c0,0.91,0.31,1.619,0.92,2.109c0.609,0.5,1.47,0.74,2.58,0.74
	c1.229,0,2.199-0.279,2.89-0.84c0.7-0.57,1.16-1.45,1.39-2.63l1.08-5.56H316.556z"/>
<polygon fill="#676767" points="319.346,50.814 319.075,52.253 321.945,52.253 320.495,59.724 322.355,59.724 323.815,52.253 
	326.695,52.253 326.976,50.814 "/>
<polygon fill="#676767" points="328.016,50.814 326.285,59.724 328.146,59.724 329.875,50.814 "/>
<path fill="#676767" d="M338.445,51.664c-0.71-0.65-1.69-0.98-2.92-0.98c-1.03,0-1.931,0.23-2.72,0.68
	c-0.79,0.451-1.4,1.111-1.851,1.971c-0.439,0.85-0.67,1.779-0.67,2.77c0,0.76,0.16,1.42,0.48,1.99c0.31,0.561,0.77,1,1.369,1.301
	c0.601,0.299,1.301,0.449,2.12,0.449c1.021,0,1.931-0.22,2.73-0.68c0.79-0.46,1.41-1.11,1.859-1.971
	c0.44-0.859,0.671-1.81,0.671-2.85C339.516,53.213,339.155,52.324,338.445,51.664 M337.195,56.503c-0.26,0.62-0.64,1.09-1.12,1.4
	c-0.48,0.32-1.06,0.479-1.73,0.479c-0.68,0-1.21-0.2-1.59-0.59s-0.569-0.97-0.569-1.74c0-0.69,0.13-1.36,0.39-1.989
	c0.26-0.641,0.63-1.121,1.12-1.431c0.479-0.319,1.06-0.479,1.74-0.479c0.699,0,1.229,0.209,1.6,0.619c0.37,0.4,0.55,0.98,0.55,1.721
	C337.585,55.204,337.455,55.874,337.195,56.503"/>
<path fill="#676767" d="M347.636,50.814l-1.101,5.6c-0.07,0.38-0.13,0.75-0.18,1.1l-0.08,0.51l-2.38-7.209h-2.21l-1.73,8.91h1.65
	l1.1-5.641c0.07-0.32,0.15-0.83,0.24-1.51l2.37,7.15h2.25l1.729-8.91H347.636z"/>
<path fill="#676767" d="M118.378,43.804c-1.797-0.106-3.221-0.751-4.218-1.917c-1.614-1.888-2.201-5.219-1.744-9.899
	c0.741-7.593,3.708-11.573,8.819-11.829l16.317,0.017l-0.569,5.389h-14.416c-1.175,0.012-2.049,0.437-2.6,1.264l-0.015,0.022
	l-0.009,0.024c-1.181,3.01-1.656,6.062-1.413,9.074c0.142,1.071,0.783,1.755,1.907,2.045l0.03,0.008l9.424,0.018l0.724-7.051
	l5.835,0.016l-1.279,12.819H118.378z"/>
<path fill="#676767" d="M161.175,22.343c-1.13-1.32-3-2.06-5.54-2.18h-16.52l-2.36,23.64l6.73-0.021l0.75-7.509h10.16
	c4.9-0.3,7.55-2.95,8.09-8.11C162.745,25.624,162.305,23.664,161.175,22.343 M156.675,28.233c-0.22,1.38-1.08,2.11-2.52,2.11
	l-9.22,0.04l0.46-4.68h9.21c0.83,0.13,1.42,0.43,1.76,0.9C156.675,27.013,156.785,27.573,156.675,28.233"/>
<path fill="#676767" d="M162.386,43.873l0.571-5.699h13.639c1.201,0,2.131-0.044,2.766-0.131c0.729-0.1,1.23-0.628,1.488-1.566
	l0.012-0.047l-0.006-0.047c-0.116-0.967-0.686-1.299-1.143-1.408c-0.582-0.137-1.518-0.204-2.858-0.204h-6.31
	c-2.693,0-4.617-0.656-5.718-1.949c-1.104-1.297-1.546-3.131-1.313-5.453c0.433-2.429,1.321-4.224,2.637-5.318
	c1.319-1.098,3.457-1.723,6.354-1.858l13.957,0.001l-0.572,5.784h-13.138c-0.918,0-1.637,0.045-2.137,0.134
	c-0.56,0.098-1.049,0.494-1.453,1.176l-0.044,0.075l0.012,0.086c0.131,0.892,0.51,1.405,1.127,1.524
	c0.526,0.101,1.308,0.151,2.391,0.151h6.534c2.521,0.144,4.309,0.877,5.305,2.179c1.002,1.311,1.392,3.178,1.157,5.551
	c-0.378,2.363-1.22,4.139-2.503,5.261c-1.282,1.122-3.45,1.713-6.443,1.758H162.386z"/>
<path fill="#2B82D4" d="M197.918,43.875l0.564-5.624h13.651c1.208,0,2.145-0.044,2.783-0.133c0.754-0.104,1.271-0.644,1.535-1.608
	l0.016-0.056l-0.008-0.057c-0.121-0.999-0.711-1.343-1.186-1.455c-0.588-0.14-1.53-0.207-2.881-0.207h-6.336
	c-2.69,0-4.609-0.653-5.704-1.939c-1.102-1.292-1.541-3.122-1.309-5.44c0.433-2.423,1.319-4.217,2.631-5.307
	c1.316-1.096,3.453-1.719,6.352-1.854h13.959l-0.565,5.711h-13.147c-0.925,0-1.65,0.045-2.155,0.134
	c-0.577,0.102-1.079,0.507-1.493,1.205l-0.053,0.09l0.015,0.103c0.136,0.92,0.529,1.448,1.172,1.572
	c0.531,0.103,1.319,0.153,2.41,0.153h6.562c2.512,0.143,4.297,0.873,5.287,2.169c0.999,1.306,1.387,3.169,1.152,5.539
	c-0.377,2.359-1.218,4.131-2.497,5.251c-1.278,1.118-3.444,1.708-6.438,1.753H197.918z"/>
<path fill="#2B82D4" d="M228.008,43.806c-1.775-0.105-3.186-0.744-4.173-1.899c-1.608-1.88-2.193-5.206-1.739-9.887
	c0.746-7.686,3.625-11.548,8.8-11.808l16.262,0.001l-0.53,5.295l-14.447,0.017c-0.072-0.003-0.154-0.005-0.234-0.005
	c-1.238,0-2.003,0.382-2.276,1.135l-0.701,2.473l11.319,0.017l-0.561,5.225l-11.152-0.069l0.021,1.668
	c0.066,1.647,0.856,2.083,1.508,2.159l15.271-0.015l-0.564,5.693H228.008z"/>
<path fill="#2B82D4" d="M272.465,28.093c0.24-4.52-2.04-7.12-6.939-7.93h-16.53l-2.38,23.64l6.68-0.01l0.74-7.55h6.89l3.28,7.63
	h7.45l-3.31-7.78l0.18-0.14C271.075,34.033,272.396,31.394,272.465,28.093 M266.615,28.233c-0.22,1.42-1.13,2.19-2.63,2.21
	l-9.25-0.02l0.479-4.79h9.301c0.83,0.13,1.439,0.43,1.79,0.91C266.615,26.973,266.726,27.543,266.615,28.233"/>
<path fill="#2B82D4" d="M284.868,44.159c-1.929,0-3.174-0.733-3.811-2.241L272.4,20.207h7.805l5.756,14.605l8.297-14.605h7.411
	l-12.508,21.678C288.232,43.414,286.828,44.159,284.868,44.159"/>
<path fill="#2B82D4" d="M305.338,43.806c-1.776-0.105-3.187-0.744-4.173-1.899c-1.608-1.88-2.193-5.206-1.739-9.887
	c0.746-7.686,3.625-11.548,8.8-11.808l16.261,0.001l-0.529,5.295l-14.447,0.017c-0.073-0.003-0.155-0.005-0.235-0.005
	c-1.238,0-2.003,0.382-2.275,1.135l-0.701,2.473l11.318,0.017l-0.56,5.225l-11.153-0.069l0.021,1.668
	c0.065,1.647,0.855,2.083,1.508,2.159l15.271-0.015l-0.564,5.693H305.338z"/>
<path fill="#2B82D4" d="M349.795,28.093c0.24-4.52-2.04-7.12-6.939-7.93h-16.53l-2.38,23.64l6.68-0.01l0.74-7.55h6.89l3.28,7.63
	h7.45l-3.311-7.78l0.181-0.14C348.405,34.033,349.726,31.394,349.795,28.093 M343.945,28.233c-0.22,1.42-1.13,2.19-2.64,2.21
	l-9.24-0.02l0.479-4.79h9.29c0.84,0.13,1.45,0.43,1.8,0.91C343.945,26.973,344.056,27.543,343.945,28.233"/>
<polygon fill="#2B82D4" points="195.947,34.205 188.562,34.205 189.039,29.861 196.425,29.861 "/>
<path fill="#676767" d="M1,51.745c0.193-0.657,0.518-1.222,0.976-1.681c3.293-3.291,12.222,0.299,19.949,8.021
	c7.721,7.722,11.313,16.649,8.02,19.942c-0.458,0.459-1.022,0.783-1.679,0.977c1.241-4.07-2.344-11.611-8.996-18.264
	C12.618,54.088,5.07,50.503,1,51.745"/>
<path fill="#676767" d="M27.675,35.733c-5.56-4.19-11.07-7.18-15.9-8.71c-2.26-0.71-4.36-1.1-6.25-1.15
	c-1.4-0.05-2.68,0.1-3.82,0.45c0.31-1.06,0.8-1.99,1.48-2.78v-0.01c0.12-0.14,0.25-0.28,0.38-0.41c1.4-1.4,3.32-2.14,5.64-2.29
	c2.79-0.2,6.14,0.47,9.8,1.9C21.245,26.943,24.155,31.343,27.675,35.733"/>
<path fill="#676767" d="M59.185,70.783c-0.14,2.32-0.89,4.25-2.29,5.65c-0.13,0.131-0.271,0.26-0.41,0.381c0,0.01,0,0.01-0.01,0.01
	c-0.79,0.67-1.72,1.16-2.78,1.47c0.35-1.14,0.49-2.42,0.45-3.82c-0.05-1.89-0.44-3.989-1.16-6.25
	c-1.53-4.819-4.51-10.329-8.71-15.88c4.39,3.51,8.8,6.43,13.01,8.66C58.715,64.664,59.385,68.003,59.185,70.783"/>
<path fill="#2B82D4" d="M57.962,74.027c-0.367,1.253-0.987,2.329-1.861,3.203c-6.278,6.277-23.304-0.57-38.039-15.292
	C3.34,47.216-3.508,30.19,2.771,23.912c0.873-0.874,1.949-1.494,3.202-1.861c-2.367,7.76,4.469,22.14,17.153,34.824
	C35.81,69.558,50.202,76.394,57.962,74.027"/>
<path fill="#676767" d="M77.135,68.583c-0.16,0.17-0.33,0.32-0.51,0.47c-0.97,0.841-2.13,1.44-3.43,1.83
	c0.43-1.399,0.61-2.979,0.56-4.7c-0.06-2.17-0.48-4.57-1.25-7.13c-2.66-8.87-9.4-19.69-19.16-29.77c-0.42-0.44-0.85-0.88-1.29-1.32
	c-0.09-0.09-0.19-0.19-0.28-0.28c-0.77-0.77-1.55-1.52-2.33-2.24c-2.25-2.12-4.54-4.07-6.82-5.87c-2-1.57-4.01-3.02-5.99-4.33
	c-5.8-3.85-11.45-6.57-16.43-7.94c-0.09-0.03-0.19-0.06-0.28-0.08c-2.18-0.59-4.22-0.91-6.1-0.96c-1.73-0.05-3.31,0.13-4.71,0.56
	c0.39-1.32,1.01-2.48,1.85-3.46c0.14-0.17,0.29-0.33,0.45-0.49c4.11-4.11,11.95-3.66,21.12,0.39c1.01,0.44,2.04,0.94,3.09,1.48
	c0.28,0.13,0.56,0.28,0.84,0.43c1.03,0.54,2.08,1.13,3.13,1.77c0.23,0.13,0.47,0.27,0.7,0.42c0.91,0.55,1.82,1.13,2.73,1.74
	c0.29,0.19,0.58,0.39,0.87,0.58c1.16,0.8,2.33,1.64,3.5,2.53c0.72,0.54,1.45,1.1,2.17,1.68c2.94,2.35,5.87,4.97,8.73,7.83
	c5.8,5.8,10.6,11.88,14.2,17.73c1.47,2.38,2.73,4.71,3.78,6.97c0.08,0.16,0.15,0.33,0.22,0.49c0.01,0.01,0,0.02,0,0.02
	C80.775,56.333,81.325,64.394,77.135,68.583"/>
<path fill="#2B82D4" d="M78.445,65.624c-0.38,1.3-0.98,2.45-1.82,3.43c-0.14,0.181-0.3,0.351-0.47,0.521
	c-2.94,2.93-7.81,3.539-13.71,2.14c-1.05-0.25-2.14-0.56-3.26-0.93c-1.99-0.66-4.06-1.521-6.2-2.56
	c-7.57-3.701-15.9-9.711-23.71-17.511c-7.8-7.8-13.81-16.12-17.5-23.69c-1.05-2.14-1.91-4.21-2.57-6.19
	c-0.49-1.45-0.87-2.86-1.14-4.2c-1.11-5.48-0.43-9.99,2.36-12.78c0.17-0.17,0.35-0.33,0.54-0.49c0.98-0.82,2.12-1.42,3.41-1.8
	c-0.43,1.4-0.61,2.98-0.55,4.7c0.02,1.39,0.21,2.88,0.55,4.43c0.78,3.67,2.35,7.75,4.63,12.04c2.24,4.21,5.15,8.61,8.67,13
	c2.36,2.94,4.98,5.88,7.85,8.75c2.86,2.869,5.8,5.5,8.75,7.859c4.39,3.51,8.8,6.43,13.01,8.66c3.97,2.109,7.78,3.609,11.23,4.43
	c1.86,0.45,3.62,0.711,5.24,0.75C75.475,66.234,77.045,66.053,78.445,65.624"/>
<path fill="#676767" d="M76.555,41.764c0,1.58-0.09,3.13-0.28,4.66c-0.29,2.42-0.8,4.78-1.51,7.04c-0.61,1.931-1.37,3.8-2.26,5.59
	c-0.88,1.771-1.89,3.45-3.02,5.05c-4.06-1.01-8.59-2.939-13.31-5.689c-4.28-2.48-8.71-5.63-13.09-9.37c0.15-0.01,0.29,0,0.43,0.01
	c1.1,0.101-0.15-1.27-1.7-1.12c-1.69-1.49-3.37-3.05-5.03-4.709c-0.07-0.07-0.14-0.15-0.22-0.23c0.18-0.79,0.21-1.99,0.47-2.73
	c0.37-1,2.4-1.87,3.35-3.04c0.25-0.31,0.42-0.64,0.47-1.01c0.23-1.74-0.58-2.43,0.81-3.01c1.38-0.58,3.13-0.23,3.71-1.5
	c0.58-1.28,0.69-1.86,2.32-1.74c1.61,0.11,3.8,0.24,2.88-0.81c-0.92-1.05-2.54-1.62-2.08-2.55c0.15-0.31,0.52-0.77,0.95-1.16
	c0.86-0.8,1.94-1.35,1.94,0.13c0,0.72,0.15,1.47,0.39,2.11c0.4,1.11,1.05,1.89,1.57,1.6c0.08-0.05,0.17-0.13,0.25-0.24
	c0.8-1.17-0.13-2.55-0.13-4.18c0-1.61-0.92-1.97-2.08-3.11c-1.16-1.16-1.27-4.52-1.97-3.6c-0.69,0.94-1.27,1.39-2.43-0.8
	c-1.15-2.2-3.58-3.94-3.7-2.09c-0.11,1.86,0.81,2.2-0.24,3.7c-0.14,0.2-0.28,0.41-0.42,0.61c-0.87,1.33-1.66,2.7-1.66,3.9
	c0,1.39-0.8-0.8-1.61-2.19c-0.81-1.39-1.85-2.08-3.24-2.89c-1.34-0.79-1.07-2.32,0.52-3.15c0.05-0.03,0.11-0.06,0.17-0.09
	c1.74-0.82,2.55-2.9,3.36-1.63c0.8,1.28,2.32,1.5,2.43,0.36c0.11-1.16-0.58-1.63,0.45-2.44c0.51-0.38,0.83-1.18,0.85-1.76
	c0.02-0.58-0.24-0.96-0.87-0.58c-0.06,0.04-0.13,0.08-0.2,0.14c-1.5,1.16-2.55,2.2-2.66,0.7c-0.06-0.81,0.14-1.91,0.13-2.58
	c-0.01-0.55-0.16-0.82-0.7-0.42c-0.04,0.03-0.08,0.06-0.13,0.1c-1.38,1.16-1.16,2.55-2.54,2.44c-1.39-0.12-2.31-0.12-5.1-0.7
	c-2.77-0.58-3.35-1.38-6.13-1.27c-2.4,0.1-2.56-0.32-5.49-0.21c-0.15,0-0.31,0.01-0.48,0.021c0.07-0.03,0.13-0.07,0.2-0.1
	c3.87-2.01,8.11-3.37,12.61-3.96c1.69-0.23,3.42-0.35,5.17-0.35c0.31,0,0.63,0,0.94,0.01c0.34,0.01,0.68,0.02,1.02,0.04h0.01
	c1.4,0.07,2.77,0.21,4.13,0.43h0.01c1.94,0.3,3.84,0.76,5.67,1.35h0.01c0.49,0.15,0.97,0.31,1.44,0.49
	c5.49,1.98,10.4,5.17,14.42,9.24c3.57,3.62,6.44,7.93,8.37,12.72c0.01,0.01,0.01,0.02,0.01,0.03c0.09,0.2,0.16,0.39,0.24,0.59
	c0,0.01,0,0.02,0.01,0.03c0.23,0.59,0.44,1.19,0.64,1.8c0.72,2.19,1.25,4.48,1.57,6.83c0.06,0.43,0.11,0.86,0.16,1.3v0.01
	C76.485,39.093,76.555,40.414,76.555,41.764"/>
<path fill="#FFFFFF" d="M76.795,39.833v-0.08c-0.03-0.59-0.08-1.18-0.13-1.77c-0.01-0.02-0.01-0.03-0.01-0.04v-0.02
	c-0.1-0.07-0.2-0.12-0.3-0.14v-0.01c-0.18-0.04-0.36,0-0.55,0.17c-1.16,1.04-2.55,0.47-3.01,0.93s-0.81,2.89-1.16,4.05
	s-1.97,0.109-1.97,3.24c0,3.119-0.34,5.79,0.93,6.6c1.27,0.811,1.85,2.43,2.78,1.15c0.37-0.52,0.9-0.57,1.39-0.45
	c0.09,0.021,0.18,0.04,0.27,0.069c0.11-0.359,0.22-0.719,0.32-1.09c0-0.01,0.02-0.039,0.02-0.049c0.03-0.091,0.05-0.171,0.07-0.261
	c0.03-0.101,0.06-0.21,0.08-0.31c0.11-0.37,0.2-0.74,0.29-1.12c0.07-0.3,0.13-0.601,0.2-0.91l0.03-0.149
	c0-0.021,0.01-0.041,0.01-0.061c0.01-0.051,0.03-0.1,0.03-0.16c0.02-0.08,0.03-0.15,0.05-0.22c0.01-0.021,0.01-0.04,0.01-0.06
	c0.01-0.041,0.02-0.08,0.02-0.121c0.01-0.02,0.01-0.05,0.01-0.069v-0.011c0,0,0-0.01,0.01-0.01c0.07-0.369,0.13-0.74,0.19-1.109
	v-0.03c0.08-0.49,0.15-0.979,0.21-1.479c0.04-0.371,0.08-0.75,0.11-1.121c0-0.06,0.01-0.109,0.01-0.18
	c0.03-0.22,0.04-0.439,0.05-0.67c0.02-0.23,0.03-0.449,0.04-0.68c0.01-0.24,0.03-0.48,0.03-0.721c0.02-0.39,0.02-0.789,0.02-1.18
	C76.845,41.124,76.835,40.463,76.795,39.833"/>
<path fill="#FFFFFF" d="M74.664,37.368c0.214-0.694,0.445-3.588,0.793-3.472c0.252,0.084,0.324,2.243,1.1,3.195
	c-0.48-4.016-1.57-7.843-3.176-11.389c0.206,1.111,0.476,2.127,0.802,2.408c0.81,0.694,0.536,2.314-0.368,2.546
	c-0.905,0.231-0.789,1.041-0.326,1.967c0.463,0.926-1.042,0.578-1.273,0.926c-0.232,0.347,0,3.009,0.463,3.588
	C73.142,37.714,74.449,38.062,74.664,37.368"/>
<path fill="#FFFFFF" d="M67.239,20.239c0.694,0,1.736-1.967-1.62-2.199C64.802,17.984,66.545,20.239,67.239,20.239"/>
<path fill="#FFFFFF" d="M54.045,7.624c1.158,0.81,0.81,1.852,1.273,3.819c0.463,1.968,0.695,5.555,1.852,6.596
	c1.157,1.041,2.778,2.316,2.778,1.274c0-1.041,0.925-1.852,2.43-2.778c1.504-0.925,2.778-0.462,3.027-1.157
	c0.088-0.244-0.007-0.752-0.161-1.361c-4.009-3.958-8.87-7.052-14.283-8.986c-0.057,0.462-0.114,0.971-0.157,1.436
	C50.689,7.74,52.888,6.814,54.045,7.624"/>
<path fill="#FFFFFF" d="M31.014,7.393c1.042,0.116,2.083,1.158,2.893,0.926c0.81-0.231,2.083,1.224,2.431,0.033
	c0.347-1.191,1.62-2.579,0.347-2.463c-1.273,0.115-2.253-0.463-2.978-0.695c-0.726-0.231-1.188-1.042-2.462-0.347
	C29.694,5.692,29.972,7.276,31.014,7.393"/>
<path fill="#FFFFFF" d="M47.795,7.74c-0.81-0.116-1.157-0.817-2.546-0.987c-1.389-0.17-4.398-0.17-3.241,0.408
	c1.158,0.579,1.736,1.042,3.241,1.852c1.504,0.81,2.662,2.662,1.967,3.588c-0.573,0.764-3.587,0.347-2.546,0.81
	c1.042,0.463,1.273,0.694,2.546,1.967c1.273,1.274,2.894,1.968,2.662,0.695c-0.231-1.273-0.694-3.704,0.232-2.662
	c0.926,1.042,1.851,0.347,1.967-0.232c0.116-0.578-1.62-2.43-1.967-3.124C49.763,9.36,48.605,7.855,47.795,7.74"/>
<path fill="#FFFFFF" d="M36.801,5.193c1.62,0,2.662-0.116,3.009-1.157c0.347-1.042-0.347-1.658-1.62-0.887
	c-1.273,0.771-1.736-0.386-2.431,0.424C35.375,4.021,35.181,5.193,36.801,5.193"/>
<path fill="#FFFFFF" d="M42.009,5.656c1.504-0.694,2.662-1.736,3.472-0.694c0.81,1.041,1.505,1.302,2.315,0.94
	c0.504-0.225,1.409-0.758,1.828-1.324C47.883,4.027,46.087,3.6,44.25,3.296c-1.326,0.319-2.955,0.546-3.444,1.434
	C40.308,5.635,40.504,6.351,42.009,5.656"/>
<path fill="#FFFFFF" d="M53.595,29.043c-0.08,0.11-0.17,0.19-0.25,0.24c-0.52,0.29-1.17-0.49-1.57-1.6
	c-0.24-0.64-0.39-1.39-0.39-2.11c0-1.48-1.08-0.93-1.94-0.13c-0.43,0.39-0.8,0.85-0.95,1.16c-0.46,0.93,1.16,1.5,2.08,2.55
	c0.92,1.05-1.27,0.92-2.88,0.81c-1.63-0.12-1.74,0.46-2.32,1.74c-0.58,1.27-2.33,0.92-3.71,1.5c-1.39,0.58-0.58,1.27-0.81,3.01
	c-0.05,0.37-0.22,0.7-0.47,1.01c-0.95,1.17-2.98,2.04-3.35,3.04c-0.26,0.74-0.29,1.94-0.47,2.73c-6.25-6.28-11.33-12.88-14.97-19.15
	c-2.93-5.03-4.93-9.84-5.88-14.1c1.28-0.89,2.62-1.7,4.01-2.42c0.17-0.01,0.33-0.02,0.48-0.02c2.93-0.11,3.09,0.31,5.49,0.21
	c2.78-0.11,3.36,0.69,6.13,1.27c2.79,0.58,3.71,0.58,5.1,0.7c1.38,0.11,1.16-1.28,2.54-2.44c0.05-0.04,0.09-0.07,0.13-0.1
	c0.54-0.4,0.69-0.13,0.7,0.42c0.01,0.67-0.19,1.77-0.13,2.58c0.11,1.5,1.16,0.46,2.66-0.7c0.07-0.06,0.14-0.1,0.2-0.14
	c0.63-0.38,0.89,0,0.87,0.58c-0.02,0.58-0.34,1.38-0.85,1.76c-1.03,0.81-0.34,1.28-0.45,2.44c-0.11,1.14-1.63,0.92-2.43-0.36
	c-0.81-1.27-1.62,0.81-3.36,1.63c-0.06,0.03-0.12,0.06-0.17,0.09c-1.59,0.83-1.86,2.36-0.52,3.15c1.39,0.81,2.43,1.5,3.24,2.89
	c0.81,1.39,1.61,3.58,1.61,2.19c0-1.2,0.79-2.57,1.66-3.9c0.14-0.2,0.28-0.41,0.42-0.61c1.05-1.5,0.13-1.84,0.24-3.7
	c0.12-1.85,2.55-0.11,3.7,2.09c1.16,2.19,1.74,1.74,2.43,0.8c0.7-0.92,0.81,2.44,1.97,3.6c1.16,1.14,2.08,1.5,2.08,3.11
	C53.465,26.493,54.396,27.874,53.595,29.043"/>
<path fill="#2B82D4" d="M30.167,77.102c-0.193,0.657-0.518,1.222-0.976,1.68c-3.293,3.292-12.222-0.299-19.949-8.021
	c-7.721-7.721-11.313-16.649-8.02-19.942c0.458-0.458,1.022-0.783,1.679-0.976c-1.241,4.07,2.344,11.611,8.996,18.263
	C18.549,74.757,26.097,78.343,30.167,77.102"/>
</svg>
