<?xml version="1.0" encoding="utf-8"?>
<!-- Generator: Adobe Illustrator 16.0.0, SVG Export Plug-In . SVG Version: 6.00 Build 0)  -->
<!DOCTYPE svg PUBLIC "-//W3C//DTD SVG 1.1//EN" "http://www.w3.org/Graphics/SVG/1.1/DTD/svg11.dtd">
<svg version="1.1" id="Layer_1" xmlns="http://www.w3.org/2000/svg" xmlns:xlink="http://www.w3.org/1999/xlink" x="0px" y="0px"
	 width="512px" height="512px" viewBox="0 0 512 512" enable-background="new 0 0 512 512" xml:space="preserve">
<g>
	<path fill="#666666" d="M6.4,331.146c1.235-4.205,3.313-7.816,6.244-10.755c21.073-21.061,78.214,1.913,127.664,51.327
		c49.41,49.415,72.396,106.547,51.322,127.619c-2.931,2.938-6.539,5.012-10.745,6.249c7.943-26.047-14.999-74.307-57.57-116.875
		C80.747,346.146,32.444,323.204,6.4,331.146"/>
	<path fill="#666666" d="M177.106,228.684c-35.581-26.813-70.839-45.949-101.75-55.739c-14.465-4.543-27.904-7.041-39.997-7.358
		c-8.959-0.322-17.152,0.637-24.447,2.877c1.983-6.783,5.12-12.734,9.47-17.789v-0.064c0.769-0.895,1.6-1.792,2.434-2.623
		c8.958-8.961,21.246-13.695,36.091-14.654c17.854-1.283,39.293,3.004,62.716,12.156
		C135.958,172.432,154.581,200.59,177.106,228.684"/>
	<path fill="#666666" d="M378.747,452.979c-0.887,14.85-5.688,27.198-14.648,36.159c-0.838,0.838-1.731,1.663-2.624,2.437
		c0,0.063,0,0.063-0.063,0.063c-5.063,4.287-11.012,7.425-17.793,9.405c2.243-7.292,3.131-15.484,2.881-24.447
		c-0.325-12.093-2.818-25.528-7.424-39.997c-9.794-30.841-28.86-66.1-55.739-101.621c28.093,22.46,56.314,41.146,83.256,55.42
		C375.748,413.821,380.033,435.193,378.747,452.979"/>
	<path fill="#2B82D4" d="M370.923,473.741c-2.35,8.017-6.311,14.904-11.912,20.497c-40.17,40.172-149.126-3.65-243.423-97.859
		c-94.211-94.21-138.034-203.169-97.854-243.348c5.588-5.589,12.474-9.557,20.492-11.906
		c-15.149,49.659,28.601,141.683,109.768,222.851C229.165,445.143,321.266,488.89,370.923,473.741"/>
	<path fill="#666666" d="M493.625,438.905c-1.025,1.089-2.113,2.05-3.262,3.008c-6.214,5.381-13.637,9.218-21.956,11.709
		c2.757-8.955,3.907-19.066,3.581-30.078c-0.382-13.886-3.068-29.246-7.999-45.625c-17.023-56.765-60.151-126.005-122.614-190.513
		c-2.688-2.815-5.436-5.631-8.248-8.446c-0.574-0.575-1.218-1.215-1.793-1.793c-4.932-4.923-9.918-9.723-14.911-14.333
		c-14.399-13.568-29.056-26.044-43.642-37.565c-12.798-10.045-25.666-19.325-38.335-27.709
		c-37.117-24.636-73.274-42.043-105.145-50.811c-0.575-0.191-1.215-0.385-1.79-0.512c-13.952-3.775-27.008-5.821-39.038-6.144
		c-11.07-0.318-21.182,0.834-30.141,3.584c2.497-8.446,6.465-15.871,11.84-22.142c0.896-1.087,1.856-2.112,2.877-3.134
		c26.305-26.303,76.475-23.422,135.156,2.494c6.466,2.818,13.056,6.019,19.776,9.471c1.792,0.834,3.582,1.793,5.375,2.753
		c6.59,3.456,13.311,7.231,20.029,11.327c1.472,0.832,3.008,1.729,4.485,2.688c5.818,3.521,11.642,7.23,17.466,11.137
		c1.855,1.215,3.712,2.493,5.567,3.708c7.425,5.122,14.912,10.496,22.398,16.192c4.606,3.456,9.276,7.04,13.886,10.751
		c18.813,15.037,37.561,31.804,55.87,50.106c37.109,37.117,67.831,76.025,90.868,113.464c9.41,15.23,17.473,30.142,24.191,44.603
		c0.513,1.023,0.955,2.111,1.405,3.137c0.063,0.063,0,0.125,0,0.125C516.916,360.514,520.434,412.095,493.625,438.905"/>
	<path fill="#2B82D4" d="M502.005,419.965c-2.431,8.316-6.269,15.679-11.642,21.948c-0.901,1.155-1.926,2.243-3.013,3.33
		c-18.812,18.748-49.982,22.647-87.735,13.693c-6.719-1.602-13.693-3.582-20.868-5.949c-12.73-4.225-25.973-9.731-39.671-16.381
		c-48.445-23.687-101.75-62.146-151.729-112.058c-49.917-49.915-88.377-103.161-111.99-151.604
		c-6.722-13.695-12.224-26.941-16.449-39.61c-3.134-9.281-5.566-18.302-7.293-26.879c-7.106-35.069-2.753-63.929,15.102-81.784
		c1.087-1.087,2.24-2.111,3.456-3.137c6.271-5.246,13.567-9.087,21.822-11.517c-2.753,8.958-3.905,19.069-3.521,30.078
		c0.128,8.893,1.343,18.429,3.521,28.347c4.991,23.485,15.036,49.596,29.629,77.048c14.333,26.941,32.957,55.099,55.482,83.193
		c15.103,18.815,31.868,37.628,50.236,55.999c18.3,18.36,37.115,35.196,55.994,50.296c28.093,22.46,56.314,41.146,83.256,55.42
		c25.402,13.499,49.788,23.097,71.86,28.348c11.913,2.88,23.174,4.549,33.535,4.798
		C483.001,423.869,493.049,422.714,502.005,419.965"/>
	<path fill="#666666" d="M489.913,267.276c0,10.106-0.576,20.03-1.794,29.818c-1.856,15.485-5.118,30.592-9.669,45.052
		c-3.899,12.355-8.763,24.315-14.461,35.772c-5.631,11.329-12.092,22.078-19.322,32.314c-25.985-6.462-54.971-18.811-85.182-36.409
		c-27.384-15.873-55.73-36.027-83.766-59.962c0.961-0.063,1.855,0,2.749,0.063c7.045,0.643-0.955-8.124-10.874-7.17
		c-10.817-9.535-21.565-19.517-32.189-30.134c-0.449-0.449-0.895-0.962-1.408-1.476c1.151-5.055,1.345-12.736,3.007-17.471
		c2.369-6.399,15.358-11.967,21.441-19.455c1.601-1.983,2.688-4.096,3.007-6.463c1.468-11.135-3.713-15.549,5.18-19.261
		c8.838-3.712,20.037-1.472,23.742-9.599c3.712-8.194,4.418-11.907,14.849-11.137c10.307,0.706,24.317,1.537,18.429-5.184
		c-5.886-6.718-16.255-10.364-13.311-16.317c0.963-1.985,3.324-4.927,6.082-7.425c5.505-5.118,12.417-8.639,12.417,0.834
		c0,4.605,0.955,9.406,2.494,13.501c2.556,7.103,6.717,12.097,10.041,10.241c0.513-0.322,1.088-0.835,1.601-1.539
		c5.124-7.487-0.825-16.317-0.825-26.75c0-10.302-5.886-12.605-13.311-19.9c-7.424-7.425-8.131-28.927-12.611-23.038
		c-4.412,6.015-8.124,8.895-15.549-5.119c-7.362-14.081-22.91-25.214-23.679-13.375c-0.706,11.903,5.181,14.078-1.531,23.676
		c-0.9,1.283-1.801,2.626-2.693,3.907c-5.569,8.509-10.619,17.277-10.619,24.957c0,8.893-5.124-5.122-10.304-14.015
		c-5.184-8.896-11.841-13.311-20.735-18.495c-8.575-5.056-6.847-14.845,3.328-20.156c0.318-0.195,0.702-0.386,1.086-0.579
		c11.137-5.247,16.321-18.558,21.501-10.431c5.124,8.191,14.849,9.601,15.549,2.305c0.706-7.421-3.711-10.431,2.888-15.615
		c3.263-2.43,5.306-7.55,5.436-11.262c0.126-3.711-1.535-6.143-5.567-3.711c-0.38,0.255-0.831,0.512-1.281,0.896
		c-9.599,7.421-16.317,14.077-17.023,4.478c-0.38-5.185,0.901-12.221,0.839-16.511c-0.07-3.519-1.026-5.247-4.485-2.688
		c-0.257,0.194-0.512,0.385-0.83,0.641c-8.833,7.424-7.425,16.317-16.255,15.614c-8.896-0.768-14.785-0.768-32.638-4.477
		c-17.727-3.712-21.439-8.833-39.229-8.128c-15.358,0.638-16.382-2.05-35.134-1.346c-0.959,0-1.981,0.065-3.071,0.131
		c0.45-0.193,0.834-0.45,1.281-0.641c24.766-12.864,51.898-21.567,80.695-25.341c10.816-1.472,21.886-2.24,33.085-2.24
		c1.985,0,4.034,0,6.019,0.062c2.174,0.066,4.35,0.129,6.524,0.257h0.066c8.958,0.45,17.726,1.343,26.431,2.753h0.062
		c12.413,1.918,24.574,4.861,36.285,8.64h0.062c3.138,0.959,6.212,1.98,9.213,3.133c35.134,12.671,66.556,33.084,92.284,59.132
		c22.844,23.163,41.216,50.745,53.565,81.399c0.063,0.066,0.063,0.128,0.063,0.193c0.574,1.279,1.025,2.494,1.536,3.775
		c0,0.066,0,0.128,0.063,0.191c1.476,3.779,2.813,7.618,4.095,11.521c4.604,14.015,8,28.669,10.048,43.709
		c0.383,2.749,0.706,5.502,1.026,8.317v0.067C489.462,250.186,489.913,258.635,489.913,267.276"/>
	<path fill="#FFFFFF" d="M491.449,254.923v-0.513c-0.199-3.775-0.514-7.553-0.837-11.328c-0.062-0.129-0.062-0.191-0.062-0.255
		v-0.129c-0.638-0.446-1.281-0.768-1.919-0.897v-0.063c-1.155-0.255-2.306,0-3.52,1.088c-7.425,6.654-16.322,3.008-19.261,5.952
		c-2.948,2.942-5.188,18.492-7.423,25.917c-2.245,7.425-12.613,0.7-12.613,20.735c0,19.961-2.174,37.053,5.951,42.232
		c8.131,5.189,11.843,15.549,17.797,7.362c2.363-3.323,5.755-3.649,8.887-2.88c0.581,0.131,1.156,0.256,1.731,0.442
		c0.706-2.298,1.406-4.6,2.049-6.974c0-0.063,0.133-0.25,0.133-0.312c0.188-0.581,0.313-1.094,0.443-1.67
		c0.194-0.643,0.382-1.343,0.513-1.98c0.705-2.369,1.28-4.737,1.855-7.167c0.45-1.919,0.831-3.846,1.275-5.826l0.2-0.955
		c0-0.132,0.063-0.263,0.063-0.388c0.063-0.325,0.188-0.638,0.188-1.025c0.131-0.512,0.192-0.961,0.323-1.406
		c0.065-0.131,0.065-0.256,0.065-0.38c0.062-0.263,0.124-0.513,0.124-0.775c0.063-0.126,0.063-0.318,0.063-0.443v-0.07
		c0,0,0-0.063,0.062-0.063c0.45-2.361,0.836-4.735,1.225-7.099v-0.193c0.507-3.138,0.955-6.269,1.338-9.467
		c0.263-2.376,0.512-4.801,0.705-7.175c0-0.382,0.063-0.701,0.063-1.151c0.193-1.405,0.257-2.812,0.32-4.285
		c0.131-1.476,0.192-2.877,0.261-4.351c0.063-1.538,0.187-3.074,0.187-4.612c0.125-2.493,0.125-5.05,0.125-7.55
		C491.761,263.18,491.699,258.954,491.449,254.923"/>
	<path fill="#FFFFFF" d="M477.802,239.144c1.373-4.444,2.85-22.964,5.075-22.221c1.61,0.538,2.073,14.355,7.041,20.446
		c-3.069-25.698-10.049-50.189-20.328-72.881c1.325,7.108,3.048,13.61,5.138,15.407c5.186,4.44,3.424,14.808-2.357,16.292
		c-5.792,1.478-5.049,6.662-2.088,12.59c2.969,5.924-6.668,3.699-8.144,5.924c-1.487,2.221,0,19.257,2.963,22.96
		C468.065,241.361,476.432,243.583,477.802,239.144"/>
	<path fill="#FFFFFF" d="M430.294,129.527c4.436,0,11.104-12.586-10.375-14.073C414.695,115.099,425.849,129.527,430.294,129.527"/>
	<path fill="#FFFFFF" d="M345.857,48.801c7.411,5.183,5.181,11.852,8.141,24.438c2.969,12.593,4.451,35.55,11.856,42.211
		c7.406,6.662,17.78,14.821,17.78,8.153c0-6.662,5.918-11.852,15.549-17.78c9.623-5.918,17.78-2.956,19.373-7.402
		c0.563-1.563-0.051-4.813-1.031-8.709c-25.654-25.329-56.765-45.13-91.404-57.506c-0.363,2.955-0.73,6.214-1.007,9.19
		C324.376,49.541,338.451,43.617,345.857,48.801"/>
	<path fill="#FFFFFF" d="M198.474,47.32c6.667,0.74,13.33,7.408,18.514,5.924c5.18-1.478,13.33,7.833,15.554,0.212
		c2.222-7.624,10.367-16.504,2.222-15.764c-8.146,0.737-14.418-2.962-19.057-4.446c-4.647-1.479-7.603-6.669-15.755-2.223
		C190.024,36.439,191.806,46.576,198.474,47.32"/>
	<path fill="#FFFFFF" d="M305.866,49.541c-5.187-0.744-7.406-5.227-16.299-6.317c-8.887-1.088-28.141-1.088-20.734,2.612
		c7.411,3.706,11.111,6.668,20.734,11.852c9.626,5.185,17.037,17.037,12.595,22.96c-3.669,4.892-22.955,2.222-16.294,5.185
		c6.663,2.961,8.145,4.44,16.294,12.586c8.141,8.155,18.516,12.596,17.028,4.45c-1.474-8.147-4.438-23.705,1.487-17.036
		c5.924,6.667,11.85,2.221,12.586-1.485c0.743-3.699-10.361-15.551-12.586-19.991C318.452,59.91,311.047,50.282,305.866,49.541"/>
	<path fill="#FFFFFF" d="M235.503,33.247c10.369,0,17.037-0.741,19.255-7.403c2.225-6.668-2.219-10.611-10.368-5.677
		c-8.146,4.934-11.108-2.469-15.555,2.711C226.378,25.747,225.137,33.247,235.503,33.247"/>
	<path fill="#FFFFFF" d="M268.833,36.208c9.623-4.441,17.035-11.108,22.223-4.441c5.181,6.662,9.624,8.331,14.811,6.015
		c3.226-1.44,9.018-4.853,11.698-8.474c-11.143-3.525-22.635-6.259-34.39-8.203c-8.486,2.041-18.909,3.493-22.041,9.177
		C257.945,36.074,259.202,40.655,268.833,36.208"/>
	<path fill="#FFFFFF" d="M342.976,185.872c-0.513,0.704-1.088,1.216-1.601,1.534c-3.324,1.856-7.485-3.133-10.041-10.236
		c-1.539-4.096-2.494-8.896-2.494-13.505c0-9.47-6.912-5.949-12.417-0.831c-2.758,2.498-5.119,5.44-6.082,7.425
		c-2.944,5.948,7.425,9.599,13.311,16.317c5.889,6.721-8.122,5.886-18.429,5.184c-10.431-0.77-11.137,2.943-14.844,11.137
		c-3.71,8.123-14.909,5.886-23.747,9.599c-8.893,3.708-3.712,8.125-5.18,19.261c-0.318,2.367-1.406,4.48-3.007,6.462
		c-6.083,7.489-19.073,13.055-21.441,19.455c-1.662,4.735-1.856,12.417-3.007,17.472c-39.995-40.189-72.504-82.426-95.799-122.552
		c-18.752-32.188-31.551-62.968-37.628-90.232c8.189-5.693,16.768-10.877,25.66-15.486c1.09-0.063,2.111-0.128,3.071-0.128
		c18.752-0.704,19.776,1.984,35.134,1.344c17.79-0.703,21.501,4.418,39.229,8.127c17.854,3.712,23.742,3.712,32.638,4.48
		c8.831,0.703,7.423-8.189,16.255-15.614c0.318-0.256,0.573-0.45,0.83-0.641c3.459-2.559,4.415-0.831,4.485,2.688
		c0.063,4.288-1.219,11.327-0.839,16.511c0.706,9.599,7.425,2.943,17.023-4.481c0.45-0.381,0.901-0.638,1.281-0.893
		c4.032-2.434,5.693,0,5.567,3.711c-0.124,3.709-2.173,8.832-5.436,11.262c-6.599,5.184-2.182,8.189-2.888,15.615
		c-0.7,7.296-10.425,5.887-15.549-2.305c-5.18-8.126-10.364,5.184-21.501,10.431c-0.384,0.193-0.768,0.384-1.086,0.575
		c-10.175,5.311-11.903,15.104-3.328,20.16c8.895,5.184,15.551,9.599,20.735,18.493c5.18,8.895,10.304,22.909,10.304,14.013
		c0-7.676,5.05-16.444,10.624-24.957c0.888-1.277,1.788-2.621,2.688-3.903c6.712-9.598,0.825-11.772,1.531-23.678
		c0.769-11.837,16.316-0.704,23.679,13.377c7.425,14.013,11.137,11.133,15.549,5.119c4.48-5.889,5.188,15.613,12.611,23.038
		c7.425,7.295,13.311,9.599,13.311,19.9C342.15,169.553,348.1,178.385,342.976,185.872"/>
	<path fill="#2B82D4" d="M193.053,493.421c-1.237,4.204-3.317,7.817-6.248,10.749c-21.072,21.066-78.215-1.913-127.663-51.327
		C9.735,403.435-13.254,346.296,7.819,325.222c2.931-2.93,6.54-5.012,10.746-6.241c-7.942,26.046,14.999,74.306,57.569,116.869
		C118.704,478.415,167.004,501.364,193.053,493.421"/>
</g>
</svg>
